<svg xmlns="http://www.w3.org/2000/svg" viewBox="0 0 99 82.61"><defs><style>.cls-1{fill:#ffdfd9;}.cls-2,.cls-3,.cls-4{fill:none;stroke:#ffdfd9;stroke-miterlimit:10;}.cls-3{stroke-width:2px;}.cls-4{stroke-width:0.5px;}</style></defs><title>Bubbles</title><g id="Layer_1" data-name="Layer 1"><path class="cls-1" d="M54.5,92A20.5,20.5,0,1,1,34,112.5,20.53,20.53,0,0,1,54.5,92m0-4A24.5,24.5,0,1,0,79,112.5,24.5,24.5,0,0,0,54.5,88Z" transform="translate(-30 -54.39)"/><path class="cls-1" d="M105.5,78A15.5,15.5,0,1,1,90,93.5,15.51,15.51,0,0,1,105.5,78m0-2A17.5,17.5,0,1,0,123,93.5,17.51,17.51,0,0,0,105.5,76Z" transform="translate(-30 -54.39)"/><path class="cls-1" d="M75.29,73.81a6.71,6.71,0,1,1-6.71,6.71,6.72,6.72,0,0,1,6.71-6.71m0-1A7.71,7.71,0,1,0,83,80.52a7.71,7.71,0,0,0-7.71-7.71Z" transform="translate(-30 -54.39)"/><path class="cls-1" d="M119.69,56.39a7.32,7.32,0,1,1-7.32,7.31,7.32,7.32,0,0,1,7.32-7.31m0-2A9.32,9.32,0,1,0,129,63.7a9.31,9.31,0,0,0-9.31-9.31Z" transform="translate(-30 -54.39)"/></g><g id="Layer_2" data-name="Layer 2"><path class="cls-2" d="M56.09,129.88s13-3,15-15" transform="translate(-30 -54.39)"/><path class="cls-3" d="M37,110s3-13,15-15" transform="translate(-30 -54.39)"/><path class="cls-4" d="M69.5,81.5s2,7,9,4" transform="translate(-30 -54.39)"/><path class="cls-4" d="M102.5,79.5s11-2,17,10" transform="translate(-30 -54.39)"/></g></svg>